<?xml version="1.0" encoding="utf-8"?>
<!-- Generator: Adobe Illustrator 25.2.0, SVG Export Plug-In . SVG Version: 6.00 Build 0)  -->
<svg version="1.1" id="Слой_1" xmlns="http://www.w3.org/2000/svg" xmlns:xlink="http://www.w3.org/1999/xlink" x="0px" y="0px"
	 viewBox="0 0 568.9 152.8" style="enable-background:new 0 0 568.9 152.8;" xml:space="preserve">
<style type="text/css">
	.st0{fill:none;}
	.st1{fill:#00B5DB;}
	.st2{fill:#DCDCDC;}
	.st3{fill:#B3B3B3;}
	.st4{fill:#009DC1;}
</style>
<g id="Слой_1_1_">
</g>
<g id="Слой_2_1_">
	<g>
		<polygon class="st0" points="389.3,85.5 410,85.5 399.7,56.7 		"/>
		<path class="st1" d="M195.8,41.6h-10.9c-0.7,0-1.3,0.2-1.8,0.7s-0.7,1.1-0.7,1.8v25h-27.1v-25c0-0.7-0.2-1.3-0.7-1.8
			s-1.1-0.7-1.8-0.7h-10.9c-0.7,0-1.3,0.2-1.8,0.7s-0.7,1.1-0.7,1.8v65c0,0.7,0.2,1.3,0.7,1.8s1.1,0.7,1.8,0.7h10.9
			c0.7,0,1.3-0.2,1.8-0.7s0.7-1.1,0.7-1.8V83.3h27.1v25.8c0,0.7,0.2,1.3,0.7,1.8s1.1,0.7,1.8,0.7h10.9c0.7,0,1.3-0.2,1.8-0.7
			s0.7-1.1,0.7-1.8v-65c0-0.7-0.2-1.3-0.7-1.8C197.1,41.9,196.5,41.6,195.8,41.6z"/>
		<path class="st1" d="M272.7,41.6h-9.8c-0.8,0-1.5,0.2-2,0.5c-0.5,0.4-0.9,0.8-1.2,1.2l-30.7,44V44.1c0-0.7-0.2-1.3-0.7-1.8
			s-1.1-0.7-1.8-0.7h-10.9c-0.7,0-1.2,0.2-1.8,0.7c-0.5,0.5-0.8,1.1-0.8,1.8v65c0,0.7,0.2,1.2,0.7,1.8c0.5,0.5,1.1,0.8,1.8,0.8h9.9
			c0.9,0,1.6-0.2,2.1-0.6s0.8-0.8,1-1.2l30.7-42.6v41.9c0,0.7,0.2,1.3,0.8,1.8c0.5,0.5,1.1,0.7,1.8,0.7h10.9c0.7,0,1.3-0.2,1.8-0.7
			s0.7-1.1,0.7-1.8v-65c0-0.7-0.2-1.3-0.7-1.8C274,41.9,273.4,41.6,272.7,41.6z"/>
		<path class="st1" d="M354.6,41.6h-9.3c-1,0-1.8,0.3-2.2,0.8c-0.5,0.5-0.8,0.9-1,1.2l-18.6,33.9l-18.4-33.9c-0.2-0.3-0.5-0.7-1-1.2
			s-1.2-0.8-2.2-0.8h-9.3c-0.7,0-1.2,0.2-1.8,0.7c-0.5,0.5-0.8,1.1-0.8,1.8v65c0,0.7,0.2,1.3,0.8,1.8c0.5,0.5,1.1,0.7,1.8,0.7h10.2
			c0.7,0,1.2-0.2,1.7-0.7s0.7-1.1,0.7-1.8V68.7l12.7,23.8c0.3,0.6,0.8,1.1,1.3,1.6s1.2,0.7,2.1,0.7h4.7c0.9,0,1.6-0.2,2.1-0.7
			s1-1,1.3-1.6L342,68.7v40.4c0,0.7,0.2,1.3,0.7,1.8s1,0.7,1.7,0.7h10.2c0.7,0,1.3-0.2,1.8-0.7s0.7-1.1,0.7-1.8v-65
			c0-0.7-0.2-1.3-0.7-1.8C355.9,41.9,355.3,41.6,354.6,41.6z"/>
		<path class="st1" d="M409.8,44.3c-0.2-0.7-0.6-1.4-1.2-1.9s-1.4-0.8-2.5-0.8h-12.8c-1.1,0-1.9,0.3-2.5,0.8s-1,1.2-1.2,1.9
			l-23.8,64.3c-0.1,0.3-0.1,0.6-0.1,0.9c0,0.5,0.2,1,0.6,1.4s0.9,0.7,1.5,0.7h10.4c1,0,1.7-0.2,2.2-0.7s0.8-0.9,0.9-1.3l4.3-11.2
			h28.2l4.3,11.2c0.1,0.4,0.4,0.8,0.9,1.3s1.2,0.7,2.2,0.7h10.4c0.6,0,1.1-0.2,1.5-0.7c0.4-0.4,0.6-0.9,0.6-1.4c0-0.3,0-0.6-0.1-0.9
			L409.8,44.3z M389.3,85.5l10.4-28.8L410,85.5H389.3z"/>
		<path class="st1" d="M479.9,75.3l18.7-30.4c0.3-0.4,0.4-0.8,0.4-1.2c0-0.5-0.2-1-0.5-1.4c-0.4-0.4-0.9-0.7-1.5-0.7h-12.1
			c-0.9,0-1.7,0.2-2.3,0.5c-0.6,0.4-1.1,0.8-1.4,1.4l-15.5,25.6h-7.4v-25c0-0.7-0.2-1.3-0.7-1.8s-1.1-0.7-1.8-0.7h-10.9
			c-0.7,0-1.3,0.2-1.8,0.7s-0.7,1.1-0.7,1.8v65c0,0.7,0.2,1.3,0.7,1.8s1.1,0.7,1.8,0.7h10.9c0.7,0,1.3-0.2,1.8-0.7s0.7-1.1,0.7-1.8
			V83.3h8l16.5,26.5c0.3,0.3,0.6,0.7,1.1,1.1s1.2,0.7,2.2,0.7h12.5c0.6,0,1.1-0.2,1.6-0.7c0.4-0.4,0.6-1,0.6-1.6
			c0-0.5-0.1-0.8-0.2-1.1L479.9,75.3z"/>
		<path class="st1" d="M566.7,86.8h-11.4c-0.8,0-1.4,0.2-1.9,0.5c-0.5,0.4-0.8,1-1.1,2c-0.9,3.9-2.6,6.5-5,8s-5.3,2.2-8.8,2.2
			c-4.1,0-7.4-1.1-9.8-3.4c-2.4-2.3-3.7-6-3.9-11.3c-0.2-5.7-0.2-11.3,0-16.8c0.2-5.3,1.5-9,3.9-11.3s5.7-3.4,9.8-3.4
			c3.5,0,6.4,0.7,8.7,2.2s4,4.2,5,8.1c0.3,0.9,0.6,1.6,1.1,2s1.1,0.6,1.9,0.6h11.4c0.6,0,1.1-0.2,1.5-0.6s0.7-0.9,0.7-1.5
			c-0.1-3.5-0.9-6.7-2.4-9.6c-1.5-2.9-3.5-5.4-6.2-7.5s-5.8-3.8-9.5-4.9c-3.7-1.1-7.7-1.7-12.2-1.7c-6.1,0-11.4,1.1-15.8,3.2
			c-4.4,2.1-7.8,5.2-10.2,9.2c-2.4,4-3.8,8.9-4.1,14.6c-0.1,2.9-0.1,5.9-0.1,9s0,6.1,0.1,8.8c0.3,5.8,1.6,10.7,4,14.8
			c2.4,4,5.8,7.1,10.2,9.2s9.7,3.2,16,3.2c4.5,0,8.5-0.6,12.2-1.7s6.8-2.8,9.5-4.9s4.7-4.6,6.2-7.5s2.3-6.1,2.4-9.6
			c0-0.6-0.2-1.1-0.7-1.5C567.8,87,567.3,86.8,566.7,86.8z"/>
	</g>
</g>
<g>
	<polygon class="st2" points="0,31 0,31 0,31 0,81.2 0,81.2 0,81.2 	"/>
	<polygon class="st2" points="94.7,28.1 100,25.1 100,25.1 55.3,0 50,2.9 55.3,5.9 	"/>
	<path class="st2" d="M0,131.7l44.7-25.1L0,131.7z"/>
	<polygon class="st1" points="55.3,81.2 55.3,56.1 55.3,56.1 55.3,56.1 55.3,106.6 55.3,106.6 100,131.7 100,81.2 100,81.2 	"/>
	<polygon class="st2" points="44.7,50.2 5.3,28.1 0,31 0,81.2 44.7,56.1 50,53.2 	"/>
	<polygon class="st2" points="0,81.2 0,81.2 0,131.7 44.7,106.6 44.7,106.6 44.7,81.2 	"/>
	<polygon class="st3" points="0,81.2 44.7,81.2 44.7,56.1 	"/>
	<polygon class="st1" points="100,31 94.7,28.1 55.3,5.9 50,2.9 44.7,0 0,25.1 0,25.1 5.3,28.1 5.3,28.1 44.7,50.2 50,53.2 
		55.3,56.1 55.3,56.1 55.3,56.1 100,81.2 100,81.2 100,81.2 100,81.2 100,31 	"/>
	<polygon class="st4" points="100,81.2 100,81.2 55.3,56.1 55.3,81.2 	"/>
</g>
</svg>
