<svg fill="#32b4d9" xmlns="http://www.w3.org/2000/svg" height="640pt" viewBox="0 0 640 640" width="640pt"><path d="M629.328 373.336h-32.715l-20.617-299.39a10.674 10.674 0 00-10.668-9.942h-64a10.674 10.674 0 00-10.668 9.941l-20.617 299.39H448v-64c0-5.886-4.777-10.667-10.664-10.667a10.637 10.637 0 00-6.672 2.34l-89.332 71.465v-63.137c0-5.887-4.773-10.668-10.664-10.668a10.634 10.634 0 00-6.668 2.34l-89.332 71.465v-63.137c0-5.887-4.773-10.668-10.664-10.668a10.626 10.626 0 00-6.668 2.34l-89.332 71.465v-63.137a10.67 10.67 0 00-16.164-9.14l-106.668 64A10.667 10.667 0 000 373.335v256C0 635.226 4.777 640 10.668 640h618.66c5.89 0 10.668-4.773 10.668-10.664V384.004c0-5.895-4.777-10.668-10.668-10.668zm-118.039-288h44.078l19.867 288h-83.812zM362.66 618.668v-128h64v128zm256.004 0H448V480c0-5.887-4.781-10.664-10.672-10.664h-85.332c-5.89 0-10.668 4.777-10.668 10.664v138.668H21.332V379.375l85.332-51.2v66.493c0 5.894 4.773 10.668 10.664 10.676 2.422 0 4.777-.828 6.672-2.344l89.332-71.465v63.133c0 5.894 4.77 10.668 10.664 10.676 2.422 0 4.774-.828 6.668-2.34l89.332-71.465v63.133c0 5.89 4.77 10.672 10.664 10.672 2.422 0 4.774-.828 6.668-2.34l89.332-71.465v52.465c0 5.894 4.777 10.668 10.668 10.668h181.328v223.996zm0 0M362.59 21.34a39.61 39.61 0 0110.37 8.02 37.318 37.318 0 0023.837 13.312 38.935 38.935 0 0025.133-13.867 49.991 49.991 0 019.004-7.465c2.195.098 7.945 5.48 11.039 8.37a35.723 35.723 0 0023.09 12.962 41.649 41.649 0 0026.796-14.7c2.614-2.452 6.57-6.175 7.336-6.632 5.727 0 7.04 1.898 10.563 6.976a26.974 26.974 0 0023.574 14.356c5.887 0 10.664-4.777 10.664-10.664 0-5.895-4.777-10.668-10.664-10.668-2.137 0-2.55-.149-6.016-5.152A31.521 31.521 0 00499.196.003a34.252 34.252 0 00-21.95 12.418c-3.543 3.34-9.48 8.918-11.734 8.969a43.46 43.46 0 01-8.985-7.239A39.584 39.584 0 00430.93.004a36.979 36.979 0 00-23.586 13.184 44.285 44.285 0 01-10.25 8.152 41.497 41.497 0 01-9.598-7.574A38.69 38.69 0 00362.66.004c-5.887-.02-10.683 4.738-10.703 10.633-.02 5.886 4.742 10.683 10.633 10.703zm0 0"/><path d="M117.336 490.668H74.664c-5.89 0-10.664 4.777-10.664 10.664v64C64 571.227 68.773 576 74.664 576h42.672c5.887 0 10.664-4.773 10.664-10.668v-64c0-5.887-4.777-10.664-10.664-10.664zm-10.672 64H85.332v-42.664h21.332zm0 0M202.668 490.668H160c-5.895 0-10.668 4.777-10.668 10.664v64A10.664 10.664 0 00160 576h42.668c5.887 0 10.664-4.773 10.664-10.668v-64c0-5.887-4.777-10.664-10.664-10.664zm-10.672 64h-21.332v-42.664h21.332zm0 0M288 490.668h-42.668c-5.894 0-10.668 4.777-10.668 10.664v64A10.664 10.664 0 00245.332 576H288c5.887 0 10.664-4.773 10.664-10.668v-64c0-5.887-4.777-10.664-10.664-10.664zm-10.672 64h-21.332v-42.664h21.332zm0 0"/></svg>