<svg fill="#32b4d9" xmlns="http://www.w3.org/2000/svg" height="934pt" viewBox="0 0 934 934.999" width="934pt"><path d="M873.14 420.766h-31.16V171.437c0-8.613-6.98-15.582-15.585-15.582h-94.387L701.02 57.68a15.648 15.648 0 00-8.075-9.344 15.59 15.59 0 00-12.347-.531L553.695 96.168l-57-88.961a15.547 15.547 0 00-9.867-6.836A15.23 15.23 0 00475.04 2.56L241.074 155.855H109.578C49.368 155.922.574 204.723.5 264.934v560.984C.574 886.128 49.367 934.93 109.578 935h716.817c8.605 0 15.585-6.98 15.585-15.586V732.418h31.16c34.43 0 62.337-27.906 62.337-62.324V483.098c0-34.434-27.907-62.332-62.336-62.332zm0 31.164c17.215 0 31.169 13.945 31.169 31.168 0 17.21-13.954 31.16-31.168 31.16h-31.16V451.93zM810.81 187.023v155.825H791.07l-49.21-155.825zm-52.41 155.825h-45.426l-43.203-129.59a15.578 15.578 0 00-14.786-10.66 59.23 59.23 0 01-42.183-17.461L603.664 176a15.584 15.584 0 00-16.422-3.602l-461.047 170.45h-16.617a77.673 77.673 0 01-55.281-23.114L676.277 82.88zm-78.274 0H216.047L588.699 205.09l2.063 2.078a90.063 90.063 0 0052.754 25.875zM478.898 37.28l44.985 70.262-363.45 138.41zm-369.32 149.742H193.5L36.207 290.078a76.884 76.884 0 01-4.539-25.144c.055-43.008 34.906-77.868 77.91-77.91zm701.23 716.805h-701.23c-43.004-.05-77.855-34.906-77.91-77.91V341.289c.148.137.309.266.45.422 1.218 1.215 2.507 2.332 3.777 3.488 1.257 1.153 2.613 2.473 4 3.63 1.39 1.155 2.73 2.085 4.097 3.116 1.371 1.032 2.84 2.211 4.332 3.25 1.496 1.02 2.946 1.813 4.414 2.723 1.469.906 3.032 1.93 4.672 2.805 1.64.867 3.195 1.554 4.8 2.351 1.606.79 3.122 1.559 4.77 2.305 1.653.746 3.543 1.324 5.313 1.96 1.777.641 3.117 1.25 4.758 1.743 1.957.629 3.976 1.07 5.988 1.563 1.563.37 2.984.847 4.508 1.156 2.293.48 4.676.758 7 1.09 1.305.175 2.574.449 3.898.59 3.696.367 7.414.542 11.133.539h20.27l.222.593 1.668-.593h679.07v140.238h-171.41c-60.234 0-109.078 48.836-109.078 109.082 0 60.242 48.844 109.078 109.078 109.078h171.41zm93.5-233.734c0 17.21-13.953 31.16-31.167 31.16H639.398c-43.027 0-77.91-34.883-77.91-77.914 0-43.035 34.883-77.91 77.91-77.91h233.743c3.765-.04 7.5-.422 11.195-1.14a40.3 40.3 0 002.633-.54 62.158 62.158 0 0010.312-3.2l.532-.253a61.73 61.73 0 006.496-3.238zm0 0"/><path d="M336.656 420.766h62.336v31.164h-62.336zm0 0M212 420.766h62.328v31.164H212zm0 0M710.648 420.766h53.41v31.164h-53.41zm0 0M585.988 420.766h62.328v31.164h-62.328zm0 0M91.191 418.582l-7.293 30.23a110.936 110.936 0 0025.68 3.118h40.082v-31.164h-40.082a80.137 80.137 0 01-18.387-2.184zm0 0M461.32 420.766h62.332v31.164H461.32zm0 0M91.191 823.734l-7.293 30.227a110.732 110.732 0 0025.68 3.125h40.082v-31.168h-40.082a79.922 79.922 0 01-18.387-2.184zm0 0M710.648 825.918h53.41v31.168h-53.41zm0 0M336.656 825.918h62.336v31.168h-62.336zm0 0M585.988 825.918h62.328v31.168h-62.328zm0 0M212 825.918h62.328v31.168H212zm0 0M461.32 825.918h62.332v31.168H461.32zm0 0M639.398 576.594c-25.816 0-46.75 20.926-46.75 46.746 0 25.812 20.934 46.754 46.75 46.754 25.817 0 46.747-20.942 46.747-46.754 0-25.82-20.93-46.746-46.747-46.746zm0 62.332c-8.601 0-15.582-6.98-15.582-15.586 0-8.61 6.98-15.582 15.582-15.582 8.606 0 15.586 6.972 15.586 15.582 0 8.605-6.98 15.586-15.586 15.586zm0 0"/></svg>