<svg fill="#32b4d9" height="512" viewBox="0 0 64 64" width="512" xmlns="http://www.w3.org/2000/svg"><path d="M61 27a1 1 0 001-1V16a1 1 0 00-1-1h-3V8a6 6 0 00-12 0v7h-8V8a6 6 0 00-12 0v7h-8V8A6 6 0 006 8v7H3a1 1 0 00-1 1v10a1 1 0 001 1h3v12H3a1 1 0 00-1 1v10a1 1 0 001 1h3v10a1 1 0 001 1h10a1 1 0 001-1V51h8v10a1 1 0 001 1h10a1 1 0 001-1V51h8v10a1 1 0 001 1h10a1 1 0 001-1V51h3a1 1 0 001-1V40a1 1 0 00-1-1h-3V27zm-3-10h2v8h-2zM6 49H4v-8h2zm0-24H4v-8h2zm10 35H8V8a4 4 0 018 0zm10-11h-8v-8h8zm0-10h-8V27h8zm0-14h-8v-8h8zm10 35h-8V8a4 4 0 018 0zm10-11h-8v-8h8zm0-10h-8V27h8zm0-14h-8v-8h8zm10 35h-8V8a4 4 0 018 0zm4-19v8h-2v-8z"/><circle cx="12" cy="21" r="2"/><circle cx="32" cy="21" r="2"/><circle cx="52" cy="21" r="2"/><circle cx="12" cy="45" r="2"/><circle cx="32" cy="45" r="2"/><circle cx="52" cy="45" r="2"/></svg>